<svg
    width="115"
    height="21"
    viewBox="0 0 115 21"
    fill="none"
    xmlns="http://www.w3.org/2000/svg"
  >
    <title>Fichap</title>
    <path
      d="M113.677 16.7314H111.877L110.591 17.9399V19.6663L111.877 20.9093H113.677L115 19.6663V17.9399L113.677 16.7314Z"
      fill="#ffffff"
    />
    <path
      d="M4.43285 9.11371e-07L14.0403 0L15.4192 1.2225V2.92441L14.0403 4.17865L4.43285 4.17865L4.43284 8.36186L11.8975 8.36186L13.2348 9.57056V11.2973L11.8975 12.5405H4.43285V19.6591L3.11577 20.9024H1.28471L-0.000244141 19.6591V12.5405L4.3686 8.36186L-0.000244141 8.36186L-0.000237768 4.17865L4.43285 9.11371e-07Z"
      fill="#132C4A"
    />
    <path
      fill-rule="evenodd"
      clip-rule="evenodd"
      d="M106.187 0H96.558L95.2944 1.18963L95.2736 1.20857V8.36095H99.6773L95.2736 12.5391V19.6586L96.558 20.9024H98.3562L99.6773 19.6586V12.5391H106.187L110.591 8.36095V4.17819L106.187 0ZM99.6773 8.36095V4.17819H106.163V8.36095H99.6773Z"
      fill="#132C4A"
    />
    <path
      d="M75.6163 4.17895L79.9934 0H86.5055L90.8826 4.17895V19.659L89.5989 20.9024H87.8016L86.4812 19.659V12.5414H80.0178V19.659L78.6973 20.9024H76.9001L75.6163 19.659V12.5414L80.0178 8.36095H86.4812V4.17895H80.0178V8.36095H75.6163V4.17895Z"
      fill="#132C4A"
    />
    <path
      d="M60.2786 19.659V12.5414H66.8037V19.659L68.1302 20.9024H69.9357L71.2254 19.659V1.24332L69.9357 0H68.1302L66.8037 1.24332V8.36095H60.2786V1.24332L58.9521 0H57.1466L55.857 1.24332V8.36095H60.2786L55.857 12.5414V19.659L57.1466 20.9024H58.9521L60.2786 19.659Z"
      fill="#132C4A"
    />
    <path
      d="M41.7938 0H50.1327L51.466 1.2087V2.93542L50.1327 4.17865H41.8184V16.7237H50.1327L51.466 17.967V19.6937L50.1327 20.9024H41.7938L37.3741 16.7237V12.5405L41.8184 8.36095L37.3741 8.36186V4.17865L41.7938 0Z"
      fill="#132C4A"
    />
    <path
      d="M21.0942 0H31.6621L32.983 1.20807V2.93389L31.6621 4.17648H28.5854V8.38691H24.1825V4.17648H21.0942L19.8101 2.93389V1.20807L21.0942 0Z"
      fill="#132C4A"
    />
    <path
      d="M28.5854 8.38691V16.7259H31.6621L32.983 17.934V19.6598L31.6621 20.9024H21.0942L19.8101 19.6598V17.934L21.0942 16.7259H24.1825V12.5564L28.5854 8.38691Z"
      fill="#132C4A"
    />
  </svg>