<?xml version="1.0" encoding="utf-8"?>
<!-- Generator: Adobe Illustrator 25.4.1, SVG Export Plug-In . SVG Version: 6.00 Build 0)  -->
<svg version="1.1" id="Layer_1" xmlns="http://www.w3.org/2000/svg" xmlns:xlink="http://www.w3.org/1999/xlink" x="0px" y="0px"
	 viewBox="0 0 932 359" style="enable-background:new 0 0 932 359;" xml:space="preserve">
<style type="text/css">
	.st0{fill:url(#SVGID_1_);}
	.st1{fill:none;}
	.st2{fill:#410829;}
</style>
<linearGradient id="SVGID_1_" gradientUnits="userSpaceOnUse" x1="164.3868" y1="1.7824" x2="794.2911" y2="312.1695">
	<stop  offset="0.1865" style="stop-color:#FFA63D"/>
	<stop  offset="0.5917" style="stop-color:#FF804D"/>
	<stop  offset="0.6632" style="stop-color:#FC7E4C"/>
	<stop  offset="0.7231" style="stop-color:#F1774A"/>
	<stop  offset="0.7788" style="stop-color:#E06C47"/>
	<stop  offset="0.832" style="stop-color:#C75D42"/>
	<stop  offset="0.8835" style="stop-color:#A8493C"/>
	<stop  offset="0.9336" style="stop-color:#813035"/>
	<stop  offset="0.9816" style="stop-color:#54142D"/>
	<stop  offset="0.9996" style="stop-color:#410829"/>
</linearGradient>
<path class="st0" d="M183.9,120.7c0.1-1.1-0.8-2.1-1.9-2.1l-9.3,0c-9.4,0-17.1,7.6-17.2,17c-5.2-5.5-11.2-8.2-14.1-9.2
	c-4.2-1.4-8.8-2.2-13.5-2.2c-21,0-36.9,14.8-36.9,34.5c0,6.2,1.6,11.9,4.5,16.7c-0.3,0.2-0.5,0.3-0.8,0.5c-6,3.8-10.6,9.9-10.6,18.3
	c0,3.5,0.8,6.7,2.1,9.6c2.9,7.4,10,12.6,18.4,12.6h64.6v-1.2v0c0-8.1-6.6-14.7-14.7-14.7l-46.5,0c-1.5,0-3-0.3-4.3-1.1
	c-1.6-1-3.2-2.8-3.3-6c0-0.3-0.4-5.2,5-7.2c6,4.3,13.8,6.7,22.4,6.7c21,0,36.9-14.6,36.9-34.1c0-3.4-0.5-6.6-1.4-9.7
	c-1.8-5.6-4.7-9.9-7.8-13.2h11.2C175.6,135.8,182.9,129.2,183.9,120.7z M127.9,177.6c-11.7,0-20.5-8.3-20.5-18.9
	c0-10.9,8.8-19.1,20.5-19.1c11.5,0,20.5,8.3,20.5,19.1C148.4,169.4,139.5,177.6,127.9,177.6z M169.5,228L169.5,228
	c0,8-6.5,14.5-14.5,14.5h-15.2c-1.4,0-2.5-1.1-2.5-2.5v-2.4c0-8,6.5-14.5,14.5-14.5h12.8C167.3,223.1,169.5,225.3,169.5,228z
	 M265.9,168.7c0,24.1-18.8,41-41.8,41c-23.3,0-42.1-16.9-42.1-41s18.8-41,42.1-41C247.1,127.7,265.9,144.6,265.9,168.7z
	 M250.1,168.7c0-16.1-11.9-26.6-26-26.6c-14.4,0-26.1,10.5-26.1,26.6c0,16.1,11.7,26.6,26.1,26.6
	C238.2,195.3,250.1,184.8,250.1,168.7z M361,168.7c0,24.1-18.8,41-41.8,41c-23.3,0-42.1-16.9-42.1-41s18.8-41,42.1-41
	C342.3,127.7,361,144.6,361,168.7z M345.2,168.7c0-16.1-11.9-26.6-26-26.6c-14.4,0-26.1,10.5-26.1,26.6c0,16.1,11.7,26.6,26.1,26.6
	C333.3,195.3,345.2,184.8,345.2,168.7z M447.2,209.6L447.2,209.6c-4.5,0-8.2-3.7-8.2-8.2v-2.7c-6.9,6.9-16.4,11-28.2,11
	c-20.2,0-38.5-16.4-38.5-41c0-24.4,18.3-41,38.5-41c11.7,0,21.3,4.1,28.2,11.1V90.5c0-4.5,3.7-8.2,8.2-8.2l0,0
	c4.5,0,8.2,3.7,8.2,8.2v110.9C455.4,205.9,451.7,209.6,447.2,209.6z M439,168.7c0-16.3-12.5-26.6-25.5-26.6
	c-14.1,0-25.2,10.3-25.2,26.6c0,16.4,11.1,26.6,25.2,26.6C426.5,195.3,439,185.1,439,168.7z M518.8,185.1c3.7-0.8,7.4,1.1,9.2,4.4
	c2.8,5.2,8.3,7.7,14.7,7.7c8.9,0,13.8-4.7,13.8-10.8c0-4.4-2.4-7.4-8.5-8.9l-16.2-4.2c-12.6-3.1-19.9-9.7-19.9-21.2
	c0-14.3,11.3-24.2,28.7-24.2c12.3,0,21.6,4.9,26.8,12.6c3,4.5,0.5,10.6-4.8,11.7l0,0c-3.3,0.7-6.8-0.8-8.3-3.9
	c-2.4-4.7-6.9-7.9-13.7-7.9c-7.5,0-12.2,3.9-12.2,9.9c0,5,3.3,7.8,10.2,9.6l15.2,4.1c12.6,3.3,18.7,10.4,18.7,21.2
	c0,16-12.6,25-30.8,25c-11.5,0-22.5-3.7-28.1-12.1C510.2,193.1,512.9,186.3,518.8,185.1L518.8,185.1z M839.6,209.8L839.6,209.8
	c-4.6,0-8.2-3.7-8.2-8.2v-2.5c-6.9,6.9-16.5,11-28.3,11c-20.3,0-38.6-16.5-38.6-41.1c0-24.5,18.4-41.1,38.6-41.1
	c11.8,0,21.4,4.1,28.3,11.1V90.5c0-4.6,3.7-8.2,8.2-8.2h0c4.6,0,8.2,3.7,8.2,8.2v111.1C847.8,206.1,844.1,209.8,839.6,209.8z
	 M831.3,168.9c0-16.3-12.6-26.7-25.6-26.7c-14.1,0-25.3,10.4-25.3,26.7c0,16.5,11.1,26.7,25.3,26.7
	C818.8,195.6,831.3,185.4,831.3,168.9z M623.8,127.8C623.8,127.8,623.8,127.8,623.8,127.8C623.8,127.8,623.8,127.8,623.8,127.8
	c-22.1,0-40.4,16.5-40.4,41.3c0,24.7,20,41,39.8,41c16.4,0,23.4-3.6,30.2-8.6c2.1-1.5,3.8-3.4,5.7-5.2c1.8-1.6,2.7-3.5,2.7-5.5
	c0-4-3.3-7.3-7.5-7.3c-2,0-3.5,0.9-4.9,2c-2,1.8-6.6,5.3-6.8,5.4c-10.4,6.7-21,5.1-21.5,5v0c-10.6-1-20-9.4-21.5-23l63.1,0
	c0,0,0-5.4,0-5.7C662,143.8,644.7,127.8,623.8,127.8z M600.1,161.2c2.5-12.5,13.5-19,23.7-19c10.7,0,19.6,6.3,22.1,19H600.1z
	 M714.1,127.8C714.1,127.8,714.1,127.8,714.1,127.8C714.1,127.8,714.1,127.8,714.1,127.8c-22.1,0-40.4,16.5-40.4,41.3
	c0,24.7,20,41,39.8,41c16.4,0,23.4-3.6,30.2-8.6c2.1-1.5,3.8-3.4,5.7-5.2c1.8-1.6,2.7-3.5,2.7-5.5c0-4-3.3-7.3-7.5-7.3
	c-2,0-3.5,0.9-4.9,2c-2,1.8-6.6,5.3-6.8,5.4c-10.4,6.7-21,5.1-21.5,5v0c-10.6-1-20-9.4-21.5-23l63.1,0c0,0,0-5.4,0-5.7
	C752.3,143.8,735,127.8,714.1,127.8z M690.4,161.2c2.5-12.5,13.5-19,23.7-19c10.7,0,19.6,6.3,22.1,19H690.4z"/>
<rect x="0.2" y="0.2" class="st1" width="931.5" height="358.5"/>
<g>
	<path class="st2" d="M292.9,276.1l11-32.9h5.7l11,32.9h-4.2L306,245.6h1.3l-10.2,30.5H292.9z M298.2,268.4v-3.8h17.1v3.8H298.2z"/>
	<path class="st2" d="M338.3,276.1v-32.9h4.1l17.1,25.7v-25.7h4.1v32.9h-4.1l-17.1-25.7v25.7H338.3z"/>
	<path class="st2" d="M381.5,276.1l11-32.9h5.7l11,32.9h-4.2l-10.3-30.5h1.3l-10.2,30.5H381.5z M386.8,268.4v-3.8h17.1v3.8H386.8z"
		/>
	<path class="st2" d="M427.4,276.1v-32.9h4.1v29h15.2v3.9H427.4z"/>
	<path class="st2" d="M467.6,276.1v-13.7l-11.1-19.2h4.7l8.4,14.5l8.4-14.5h4.7l-11,19.2v13.7H467.6z"/>
	<path class="st2" d="M509.4,276.1v-29h-11.2v-3.9h26.5v3.9h-11.2v29H509.4z"/>
	<path class="st2" d="M542.5,276.1v-32.9h4.1v32.9H542.5z"/>
	<path class="st2" d="M580.6,276.7c-3.3,0-6-0.7-8.3-2.2c-2.3-1.4-4-3.5-5.2-6c-1.2-2.6-1.8-5.5-1.8-8.9s0.6-6.4,1.8-8.9
		c1.2-2.6,2.9-4.6,5.2-6c2.3-1.4,5.1-2.2,8.3-2.2c3.8,0,6.9,1,9.4,2.9c2.5,1.9,4.1,4.5,5.1,7.8l-4.1,1.1c-0.7-2.4-1.9-4.4-3.6-5.8
		c-1.7-1.4-4-2.1-6.8-2.1c-2.4,0-4.5,0.6-6.1,1.7c-1.6,1.1-2.9,2.7-3.7,4.6c-0.8,2-1.2,4.3-1.3,6.9c0,2.6,0.4,4.9,1.2,6.9
		c0.8,2,2.1,3.5,3.7,4.7c1.6,1.1,3.7,1.7,6.1,1.7c2.8,0,5-0.7,6.8-2.1c1.7-1.4,2.9-3.4,3.6-5.8l4.1,1.1c-0.9,3.3-2.6,5.9-5.1,7.8
		C587.5,275.8,584.4,276.7,580.6,276.7z"/>
	<path class="st2" d="M626.8,276.7c-2.3,0-4.4-0.4-6.3-1.2c-1.9-0.8-3.4-1.9-4.6-3.4c-1.2-1.5-2-3.2-2.4-5.2l4.2-0.7
		c0.5,2.1,1.6,3.7,3.3,4.8c1.7,1.2,3.7,1.7,5.9,1.7c1.5,0,2.8-0.2,4-0.7c1.2-0.5,2.1-1.1,2.8-2c0.7-0.9,1-1.9,1-3.1
		c0-0.7-0.1-1.4-0.4-1.9c-0.3-0.5-0.6-1-1-1.3c-0.4-0.4-0.9-0.7-1.5-0.9c-0.5-0.3-1.1-0.5-1.7-0.6l-8.4-2.5c-0.9-0.3-1.8-0.6-2.6-1
		c-0.9-0.4-1.6-0.9-2.3-1.6c-0.7-0.6-1.2-1.4-1.6-2.3c-0.4-0.9-0.6-1.9-0.6-3.2c0-1.9,0.5-3.6,1.5-5c1-1.4,2.4-2.4,4.1-3.2
		c1.7-0.7,3.7-1.1,5.9-1.1c2.2,0,4.2,0.4,5.9,1.2c1.7,0.8,3.2,1.9,4.3,3.3c1.1,1.4,1.9,3.1,2.3,5.1l-4.3,0.8
		c-0.2-1.3-0.7-2.5-1.5-3.5c-0.8-1-1.8-1.7-2.9-2.2c-1.2-0.5-2.5-0.8-3.9-0.8c-1.3,0-2.5,0.2-3.6,0.6c-1.1,0.4-1.9,1.1-2.6,1.8
		c-0.6,0.8-1,1.7-1,2.7c0,1,0.3,1.8,0.9,2.4c0.6,0.6,1.3,1.1,2.1,1.5c0.8,0.4,1.7,0.7,2.5,0.9l6.3,1.8c0.7,0.2,1.5,0.5,2.5,0.8
		c0.9,0.4,1.8,0.8,2.7,1.5c0.9,0.6,1.6,1.5,2.2,2.5c0.6,1,0.9,2.4,0.9,3.9c0,1.6-0.3,3-0.9,4.2c-0.6,1.2-1.5,2.3-2.6,3.1
		c-1.1,0.8-2.4,1.5-3.9,1.9C630.1,276.5,628.5,276.7,626.8,276.7z"/>
</g>
</svg>
