<svg id="Layer_1" data-name="Layer 1" xmlns="http://www.w3.org/2000/svg" xmlns:xlink="http://www.w3.org/1999/xlink" viewBox="0 0 298.5 97.7"><defs><style>.cls-1{fill:#fff;}.cls-2{fill:#231f20;}.cls-3{fill:url(#linear-gradient);}.cls-4{fill:url(#linear-gradient-2);}</style><linearGradient id="linear-gradient" x1="86.68" y1="176.63" x2="200.5" y2="176.63" gradientTransform="matrix(1, 0.06, 0, -1, 0, 203.02)" gradientUnits="userSpaceOnUse"><stop offset="0"/><stop offset="0.32" stop-color="#fff"/><stop offset="1"/></linearGradient><linearGradient id="linear-gradient-2" x1="86.61" y1="182.82" x2="233.39" y2="182.82" gradientTransform="matrix(1, 0.06, 0, -1, 0, 203.02)" gradientUnits="userSpaceOnUse"><stop offset="0" stop-color="#00002a"/><stop offset="1" stop-color="#007dc2"/></linearGradient></defs><title>logo_recu_2</title><path class="cls-1" d="M.75,79.6c0-10.7,4.2-16.9,14.6-16.9h8.3v6.5h-8c-6.2,0-7.4,3.6-7.4,11.4V102H.75Z" transform="translate(-0.75 -5)"/><path class="cls-1" d="M44.45,95.4H60v6.5H44c-9.5,0-18.1-5.3-18.1-19.5s8.3-20.5,19.3-20.5c12.7,0,18.7,7.2,18.7,20.1v3.4h-30C34.65,93.7,39.35,95.4,44.45,95.4Zm1.1-27.1c-6.5,0-10.8,2.4-11.6,10.8h22.1C55.65,71.7,52.45,68.3,45.55,68.3Z" transform="translate(-0.75 -5)"/><path class="cls-1" d="M67.55,82.4c0-14.1,9-19.7,17.7-19.7h15.3v6.5H85.65c-5.3,0-10.2,2.4-10.2,13.5,0,10.9,5,12.8,10.3,12.8h14.8V102H85.15C76.35,101.9,67.55,96.6,67.55,82.4Z" transform="translate(-0.75 -5)"/><path class="cls-1" d="M105.25,85V62.7h7.6V84.1c0,8.9,1.9,12.4,10.2,12.4s10.5-3.4,10.5-12.4V62.7h7.6V85c0,12.8-6.3,17.7-18,17.7S105.25,97.8,105.25,85Z" transform="translate(-0.75 -5)"/><path class="cls-1" d="M147.15,79.6c0-10.8,4.2-17,14.7-17h8.3v6.5h-8c-6.2,0-7.4,3.6-7.4,11.4v21.4h-7.6Z" transform="translate(-0.75 -5)"/><path class="cls-1" d="M172.45,95.4h18.4c3,0,6.5-1,6.5-4.9,0-4.2-2.4-5-6-5h-6.6c-6.6,0-13.1-2.7-13.1-11.5s7.4-11.3,14.1-11.3h16.4v6.5h-16.9c-4,0-6.5,1.1-6.5,4.7,0,3.4,2.1,4.9,5.9,4.9h6.9c7,0,13.1,2.7,13.1,11.6s-6.3,11.6-12.9,11.6h-19.3V95.4Z" transform="translate(-0.75 -5)"/><path class="cls-1" d="M209.75,62.7h7.6v39.2h-7.6Z" transform="translate(-0.75 -5)"/><path class="cls-1" d="M220.65,62.7h8.1l9.9,23.3c1.7,4.1,3,8.3,3,8.3s1.4-4.3,3.1-8.3l9.9-23.3h7.6l-17,39.2h-7.6Z" transform="translate(-0.75 -5)"/><path class="cls-1" d="M284.35,69.1h-17.2V62.7h18c9.8,0,14.1,6.3,14.1,16.8v22.4h-22.6c-7.2,0-13.8-2.7-13.8-11.9s6.2-11.8,13.8-11.8h15C291.35,72.3,290.05,69.1,284.35,69.1Zm-7.2,15.1c-3.9,0-6.5,1.3-6.5,5.7s2.7,5.7,6.5,5.7h14.5V84.2Z" transform="translate(-0.75 -5)"/><path class="cls-2" d="M233.31,29.16a7.25,7.25,0,0,0-.79-1.36Z" transform="translate(-0.75 -5)"/><path class="cls-3" d="M86.68,17.51V43.76c3.62-21.5,42.88-6.9,64.26,2.49S184.78,58,200.5,57.9c-30.1-4.53-76.14-45.14-97.3-46.27C88.38,10.84,86.68,17.51,86.68,17.51Z" transform="translate(-0.75 -5)"/><path class="cls-4" d="M86.68,43.76s-2,7.47,15.5,8.37c11.77.68,26.47-3.51,41.75-8.94C122,34.37,89.85,24.41,86.68,43.76ZM184.32,5.41C166.79,6.76,146,15.7,128,21.47c8.94,5,18.89,11.2,28.85,17.2,23.65-8.71,47.41-17.76,63.59-14.14,10,2.15,12.9,8.82,12.9,8.82C234.79,10.95,214.19,3,184.32,5.41Z" transform="translate(-0.75 -5)"/></svg>